<svg width="17" height="16" viewBox="0 0 17 16" fill="none" xmlns="http://www.w3.org/2000/svg">
    <path
        d="M6.36788 3.33337C6.26198 3.3335 6.15852 3.36432 6.07072 3.4219C5.98292 3.47947 5.91477 3.56119 5.87497 3.65661C5.83516 3.75203 5.82552 3.85682 5.84727 3.95759C5.86902 4.05837 5.92117 4.15055 5.99706 4.22237L9.88109 7.99882L5.99706 11.7753C5.94595 11.823 5.90514 11.8801 5.87703 11.9434C5.84891 12.0066 5.83406 12.0747 5.83334 12.1436C5.83262 12.2125 5.84604 12.2808 5.87283 12.3446C5.89961 12.4084 5.93921 12.4663 5.98932 12.515C6.03942 12.5637 6.09902 12.6022 6.16462 12.6283C6.23022 12.6543 6.3005 12.6674 6.37136 12.6667C6.44221 12.666 6.51221 12.6515 6.57725 12.6242C6.64229 12.5969 6.70107 12.5572 6.75015 12.5075L11.0107 8.36493C11.1106 8.26782 11.1666 8.13613 11.1666 7.99882C11.1666 7.86151 11.1106 7.72982 11.0107 7.6327L6.75015 3.49014C6.70046 3.44047 6.64102 3.40101 6.57536 3.37408C6.5097 3.34715 6.43915 3.33331 6.36788 3.33337Z"
        fill="inherit" />
</svg>